<?xml version="1.0" encoding="utf-8"?>
<svg viewBox="41.4 210.892 389.006 107.03" xmlns="http://www.w3.org/2000/svg">
  <path d="M 145.43 264.407 A 50.515 50.515 0 0 1 94.915 314.922 A 50.515 50.515 0 0 1 44.4 264.407 A 50.515 50.515 0 0 1 94.915 213.892 A 50.515 50.515 0 0 1 145.43 264.407 Z" style="stroke-width: 6px; fill: none;"/>
  <path d="M 148.43 264.407 C 148.43 278.969 142.275 292.728 132.756 302.248 C 123.236 311.767 109.477 317.922 94.915 317.922 C 80.353 317.922 66.594 311.767 57.074 302.248 C 47.555 292.728 41.4 278.969 41.4 264.407 C 41.4 249.845 47.555 236.086 57.074 226.566 C 66.594 217.047 80.353 210.892 94.915 210.892 C 109.477 210.892 123.236 217.047 132.756 226.566 C 142.275 236.086 148.43 249.845 148.43 264.407 Z M 128.513 230.809 C 119.75 222.045 108.251 216.892 94.915 216.892 C 81.579 216.892 70.08 222.045 61.317 230.809 C 52.553 239.572 47.4 251.071 47.4 264.407 C 47.4 277.743 52.553 289.242 61.317 298.005 C 70.08 306.769 81.579 311.922 94.915 311.922 C 108.251 311.922 119.75 306.769 128.513 298.005 C 137.277 289.242 142.43 277.743 142.43 264.407 C 142.43 251.071 137.277 239.572 128.513 230.809 Z" style="fill: rgb(225, 225, 225);"/>
  <path style="stroke-width: 6px; stroke: rgb(225, 225, 225); fill: none;" d="M 113.062 219.132 C 113.062 219.132 125.86 254.428 104.808 246.508 C 83.756 238.587 82.861 257.691 90.097 273.558" transform="matrix(0.41506, 0.909794, -0.909794, 0.41506, 283.470612, 51.79034)"/>
  <path style="stroke-width: 6px; stroke: rgb(225, 225, 225); fill: none;" d="M 101.942 250.322 C 101.942 250.322 111.446 276.529 95.815 270.648 C 80.182 264.767 79.518 278.952 84.891 290.733" transform="matrix(0.41506, 0.909794, -0.909794, 0.41506, 300.715179, 73.333771)"/>
  <path style="stroke-width: 6px; stroke: rgb(225, 225, 225); fill: none;" d="M 92.569 279.302 C 92.569 279.302 98.241 294.943 88.911 291.433 C 79.583 287.924 79.187 296.388 82.393 303.419" transform="matrix(0.41506, 0.909794, -0.909794, 0.41506, 316.218048, 90.887154)"/>
  <path d="M 187.183 276.56 Q 187.183 281.829 183.391 284.863 Q 179.599 287.896 172.84 287.896 Q 166.613 287.896 161.822 285.554 L 161.822 277.89 Q 165.761 279.647 168.489 280.365 Q 171.216 281.084 173.478 281.084 Q 176.193 281.084 177.643 280.046 Q 179.093 279.008 179.093 276.959 Q 179.093 275.815 178.455 274.923 Q 177.816 274.032 176.578 273.207 Q 175.341 272.382 171.536 270.572 Q 167.97 268.896 166.187 267.352 Q 164.404 265.809 163.339 263.76 Q 162.275 261.711 162.275 258.97 Q 162.275 253.807 165.774 250.853 Q 169.274 247.899 175.447 247.899 Q 178.481 247.899 181.235 248.618 Q 183.99 249.336 186.997 250.64 L 184.336 257.054 Q 181.222 255.776 179.186 255.271 Q 177.151 254.765 175.181 254.765 Q 172.84 254.765 171.589 255.856 Q 170.338 256.947 170.338 258.704 Q 170.338 259.795 170.844 260.606 Q 171.349 261.418 172.454 262.176 Q 173.558 262.935 177.683 264.904 Q 183.138 267.512 185.161 270.133 Q 187.183 272.754 187.183 276.56 Z M 209.579 287.896 Q 204.337 287.896 201.356 284.091 L 200.931 284.091 Q 201.356 287.816 201.356 288.402 L 201.356 300.457 L 193.24 300.457 L 193.24 257.613 L 199.839 257.613 L 200.984 261.471 L 201.356 261.471 Q 204.204 257.054 209.792 257.054 Q 215.061 257.054 218.042 261.125 Q 221.022 265.197 221.022 272.435 Q 221.022 277.198 219.625 280.711 Q 218.228 284.224 215.647 286.06 Q 213.065 287.896 209.579 287.896 Z M 207.184 263.547 Q 204.177 263.547 202.793 265.396 Q 201.41 267.246 201.356 271.504 L 201.356 272.382 Q 201.356 277.172 202.78 279.248 Q 204.204 281.323 207.291 281.323 Q 212.746 281.323 212.746 272.329 Q 212.746 267.938 211.402 265.742 Q 210.058 263.547 207.184 263.547 Z M 234.452 272.435 Q 234.452 276.853 235.902 279.115 Q 237.353 281.376 240.626 281.376 Q 243.873 281.376 245.296 279.128 Q 246.72 276.879 246.72 272.435 Q 246.72 268.018 245.283 265.809 Q 243.846 263.6 240.573 263.6 Q 237.326 263.6 235.889 265.796 Q 234.452 267.991 234.452 272.435 Z M 255.023 272.435 Q 255.023 279.7 251.191 283.798 Q 247.359 287.896 240.52 287.896 Q 236.235 287.896 232.962 286.02 Q 229.689 284.144 227.932 280.631 Q 226.176 277.119 226.176 272.435 Q 226.176 265.144 229.981 261.099 Q 233.787 257.054 240.679 257.054 Q 244.964 257.054 248.237 258.917 Q 251.51 260.779 253.266 264.265 Q 255.023 267.751 255.023 272.435 Z M 274.418 281.43 Q 276.547 281.43 279.527 280.498 L 279.527 286.539 Q 276.493 287.896 272.076 287.896 Q 267.206 287.896 264.984 285.435 Q 262.762 282.973 262.762 278.05 L 262.762 263.707 L 258.877 263.707 L 258.877 260.274 L 263.348 257.559 L 265.689 251.279 L 270.879 251.279 L 270.879 257.613 L 279.208 257.613 L 279.208 263.707 L 270.879 263.707 L 270.879 278.05 Q 270.879 279.78 271.85 280.605 Q 272.821 281.43 274.418 281.43 Z M 285.267 249.922 Q 285.267 245.957 289.684 245.957 Q 294.102 245.957 294.102 249.922 Q 294.102 251.811 292.997 252.862 Q 291.893 253.914 289.684 253.914 Q 285.267 253.914 285.267 249.922 Z M 293.729 287.364 L 285.613 287.364 L 285.613 257.613 L 293.729 257.613 Z M 319.008 263.707 L 311.982 263.707 L 311.982 287.364 L 303.866 287.364 L 303.866 263.707 L 299.395 263.707 L 299.395 259.795 L 303.866 257.613 L 303.866 255.43 Q 303.866 250.348 306.367 248.006 Q 308.869 245.664 314.377 245.664 Q 318.582 245.664 321.855 246.915 L 319.779 252.876 Q 317.331 252.104 315.255 252.104 Q 313.526 252.104 312.754 253.129 Q 311.982 254.153 311.982 255.75 L 311.982 257.613 L 319.008 257.613 Z M 331.865 287.364 L 323.748 287.364 L 323.748 245.957 L 331.865 245.957 Z M 359.591 287.364 L 358.021 283.319 L 357.809 283.319 Q 355.759 285.9 353.591 286.898 Q 351.422 287.896 347.936 287.896 Q 343.651 287.896 341.19 285.448 Q 338.728 283 338.728 278.476 Q 338.728 273.739 342.041 271.49 Q 345.354 269.242 352.034 269.002 L 357.196 268.843 L 357.196 267.539 Q 357.196 263.015 352.566 263.015 Q 349 263.015 344.184 265.17 L 341.496 259.688 Q 346.632 257 352.885 257 Q 358.873 257 362.066 259.608 Q 365.26 262.216 365.26 267.539 L 365.26 287.364 Z M 357.196 273.579 L 354.056 273.686 Q 350.517 273.792 348.787 274.963 Q 347.058 276.134 347.058 278.529 Q 347.058 281.962 350.996 281.962 Q 353.817 281.962 355.507 280.339 Q 357.196 278.715 357.196 276.028 Z M 394.505 278.529 Q 394.505 283.106 391.325 285.501 Q 388.145 287.896 381.812 287.896 Q 378.565 287.896 376.276 287.457 Q 373.988 287.018 371.992 286.167 L 371.992 279.46 Q 374.254 280.525 377.088 281.243 Q 379.922 281.962 382.078 281.962 Q 386.495 281.962 386.495 279.407 Q 386.495 278.449 385.91 277.85 Q 385.324 277.252 383.887 276.493 Q 382.45 275.735 380.055 274.724 Q 376.622 273.287 375.012 272.063 Q 373.402 270.838 372.671 269.255 Q 371.939 267.672 371.939 265.356 Q 371.939 261.391 375.012 259.223 Q 378.086 257.054 383.728 257.054 Q 389.103 257.054 394.186 259.396 L 391.738 265.25 Q 389.502 264.292 387.56 263.68 Q 385.617 263.068 383.594 263.068 Q 380.002 263.068 380.002 265.01 Q 380.002 266.102 381.16 266.9 Q 382.317 267.698 386.229 269.268 Q 389.715 270.679 391.338 271.903 Q 392.962 273.127 393.733 274.724 Q 394.505 276.32 394.505 278.529 Z M 408.664 271.184 L 412.203 266.66 L 420.533 257.613 L 429.687 257.613 L 417.872 270.519 L 430.406 287.364 L 421.038 287.364 L 412.469 275.309 L 408.983 278.103 L 408.983 287.364 L 400.867 287.364 L 400.867 245.957 L 408.983 245.957 L 408.983 264.425 L 408.558 271.184 Z" style="fill: rgb(207, 207, 207); white-space: pre;"/>
</svg>